<mxfile host="65bd71144e">
    <diagram id="TB4ota5wirnsDeLSB5fu" name="Page-1">
        <mxGraphModel dx="1900" dy="945" grid="1" gridSize="8" guides="1" tooltips="1" connect="1" arrows="1" fold="1" page="1" pageScale="1" pageWidth="3300" pageHeight="4681" background="#000000" math="0" shadow="0">
            <root>
                <mxCell id="0"/>
                <mxCell id="1" parent="0"/>
                <mxCell id="B_iCe9IJ6w_yzAtO5XU2-258" value="" style="rounded=0;whiteSpace=wrap;html=1;strokeColor=none;fillColor=#000000;" parent="1" vertex="1">
                    <mxGeometry width="1024" height="768" as="geometry"/>
                </mxCell>
                <mxCell id="B_iCe9IJ6w_yzAtO5XU2-291" value="" style="ellipse;whiteSpace=wrap;html=1;strokeColor=none;fontSize=10;" parent="1" vertex="1">
                    <mxGeometry x="216" y="208" width="32" height="32" as="geometry"/>
                </mxCell>
                <mxCell id="B_iCe9IJ6w_yzAtO5XU2-292" value="" style="ellipse;whiteSpace=wrap;html=1;strokeColor=none;fontSize=10;" parent="1" vertex="1">
                    <mxGeometry x="216" y="288" width="32" height="32" as="geometry"/>
                </mxCell>
                <mxCell id="B_iCe9IJ6w_yzAtO5XU2-293" value="" style="ellipse;whiteSpace=wrap;html=1;strokeColor=none;fontSize=10;" parent="1" vertex="1">
                    <mxGeometry x="216" y="368" width="32" height="32" as="geometry"/>
                </mxCell>
                <mxCell id="B_iCe9IJ6w_yzAtO5XU2-294" value="" style="ellipse;whiteSpace=wrap;html=1;strokeColor=none;fontSize=10;" parent="1" vertex="1">
                    <mxGeometry x="216" y="448" width="32" height="32" as="geometry"/>
                </mxCell>
                <mxCell id="B_iCe9IJ6w_yzAtO5XU2-295" value="" style="ellipse;whiteSpace=wrap;html=1;strokeColor=none;fontSize=10;" parent="1" vertex="1">
                    <mxGeometry x="216" y="528" width="32" height="32" as="geometry"/>
                </mxCell>
                <mxCell id="B_iCe9IJ6w_yzAtO5XU2-299" value="" style="ellipse;whiteSpace=wrap;html=1;strokeColor=none;fontSize=10;" parent="1" vertex="1">
                    <mxGeometry x="296" y="208" width="32" height="32" as="geometry"/>
                </mxCell>
                <mxCell id="B_iCe9IJ6w_yzAtO5XU2-300" value="" style="ellipse;whiteSpace=wrap;html=1;strokeColor=none;fontSize=10;" parent="1" vertex="1">
                    <mxGeometry x="296" y="288" width="32" height="32" as="geometry"/>
                </mxCell>
                <mxCell id="B_iCe9IJ6w_yzAtO5XU2-301" value="" style="ellipse;whiteSpace=wrap;html=1;strokeColor=none;fontSize=10;" parent="1" vertex="1">
                    <mxGeometry x="296" y="368" width="32" height="32" as="geometry"/>
                </mxCell>
                <mxCell id="B_iCe9IJ6w_yzAtO5XU2-302" value="" style="ellipse;whiteSpace=wrap;html=1;strokeColor=none;fontSize=10;" parent="1" vertex="1">
                    <mxGeometry x="296" y="448" width="32" height="32" as="geometry"/>
                </mxCell>
                <mxCell id="B_iCe9IJ6w_yzAtO5XU2-303" value="" style="ellipse;whiteSpace=wrap;html=1;strokeColor=none;fontSize=10;" parent="1" vertex="1">
                    <mxGeometry x="296" y="528" width="32" height="32" as="geometry"/>
                </mxCell>
                <mxCell id="B_iCe9IJ6w_yzAtO5XU2-307" value="" style="ellipse;whiteSpace=wrap;html=1;strokeColor=none;fontSize=10;" parent="1" vertex="1">
                    <mxGeometry x="376" y="208" width="32" height="32" as="geometry"/>
                </mxCell>
                <mxCell id="B_iCe9IJ6w_yzAtO5XU2-308" value="" style="ellipse;whiteSpace=wrap;html=1;strokeColor=none;fontSize=10;" parent="1" vertex="1">
                    <mxGeometry x="376" y="288" width="32" height="32" as="geometry"/>
                </mxCell>
                <mxCell id="B_iCe9IJ6w_yzAtO5XU2-309" value="" style="ellipse;whiteSpace=wrap;html=1;strokeColor=none;fontSize=10;" parent="1" vertex="1">
                    <mxGeometry x="376" y="368" width="32" height="32" as="geometry"/>
                </mxCell>
                <mxCell id="B_iCe9IJ6w_yzAtO5XU2-310" value="" style="ellipse;whiteSpace=wrap;html=1;strokeColor=none;fontSize=10;" parent="1" vertex="1">
                    <mxGeometry x="376" y="448" width="32" height="32" as="geometry"/>
                </mxCell>
                <mxCell id="B_iCe9IJ6w_yzAtO5XU2-311" value="" style="ellipse;whiteSpace=wrap;html=1;strokeColor=none;fontSize=10;" parent="1" vertex="1">
                    <mxGeometry x="376" y="528" width="32" height="32" as="geometry"/>
                </mxCell>
                <mxCell id="B_iCe9IJ6w_yzAtO5XU2-315" value="" style="ellipse;whiteSpace=wrap;html=1;strokeColor=none;fontSize=10;" parent="1" vertex="1">
                    <mxGeometry x="456" y="208" width="32" height="32" as="geometry"/>
                </mxCell>
                <mxCell id="B_iCe9IJ6w_yzAtO5XU2-316" value="" style="ellipse;whiteSpace=wrap;html=1;strokeColor=none;fontSize=10;" parent="1" vertex="1">
                    <mxGeometry x="456" y="288" width="32" height="32" as="geometry"/>
                </mxCell>
                <mxCell id="B_iCe9IJ6w_yzAtO5XU2-317" value="" style="ellipse;whiteSpace=wrap;html=1;strokeColor=none;fontSize=10;" parent="1" vertex="1">
                    <mxGeometry x="456" y="368" width="32" height="32" as="geometry"/>
                </mxCell>
                <mxCell id="B_iCe9IJ6w_yzAtO5XU2-318" value="" style="ellipse;whiteSpace=wrap;html=1;strokeColor=none;fontSize=10;" parent="1" vertex="1">
                    <mxGeometry x="456" y="448" width="32" height="32" as="geometry"/>
                </mxCell>
                <mxCell id="B_iCe9IJ6w_yzAtO5XU2-319" value="" style="ellipse;whiteSpace=wrap;html=1;strokeColor=none;fontSize=10;" parent="1" vertex="1">
                    <mxGeometry x="456" y="528" width="32" height="32" as="geometry"/>
                </mxCell>
                <mxCell id="B_iCe9IJ6w_yzAtO5XU2-323" value="" style="ellipse;whiteSpace=wrap;html=1;strokeColor=none;fontSize=10;" parent="1" vertex="1">
                    <mxGeometry x="536" y="208" width="32" height="32" as="geometry"/>
                </mxCell>
                <mxCell id="B_iCe9IJ6w_yzAtO5XU2-324" value="" style="ellipse;whiteSpace=wrap;html=1;strokeColor=none;fontSize=10;" parent="1" vertex="1">
                    <mxGeometry x="536" y="288" width="32" height="32" as="geometry"/>
                </mxCell>
                <mxCell id="B_iCe9IJ6w_yzAtO5XU2-325" value="" style="ellipse;whiteSpace=wrap;html=1;strokeColor=none;fontSize=10;" parent="1" vertex="1">
                    <mxGeometry x="536" y="368" width="32" height="32" as="geometry"/>
                </mxCell>
                <mxCell id="B_iCe9IJ6w_yzAtO5XU2-326" value="" style="ellipse;whiteSpace=wrap;html=1;strokeColor=none;fontSize=10;" parent="1" vertex="1">
                    <mxGeometry x="536" y="448" width="32" height="32" as="geometry"/>
                </mxCell>
                <mxCell id="B_iCe9IJ6w_yzAtO5XU2-327" value="" style="ellipse;whiteSpace=wrap;html=1;strokeColor=none;fontSize=10;" parent="1" vertex="1">
                    <mxGeometry x="536" y="528" width="32" height="32" as="geometry"/>
                </mxCell>
                <mxCell id="B_iCe9IJ6w_yzAtO5XU2-331" value="" style="ellipse;whiteSpace=wrap;html=1;strokeColor=none;fontSize=10;" parent="1" vertex="1">
                    <mxGeometry x="616" y="208" width="32" height="32" as="geometry"/>
                </mxCell>
                <mxCell id="B_iCe9IJ6w_yzAtO5XU2-332" value="" style="ellipse;whiteSpace=wrap;html=1;strokeColor=none;fontSize=10;" parent="1" vertex="1">
                    <mxGeometry x="616" y="288" width="32" height="32" as="geometry"/>
                </mxCell>
                <mxCell id="B_iCe9IJ6w_yzAtO5XU2-333" value="" style="ellipse;whiteSpace=wrap;html=1;strokeColor=none;fontSize=10;" parent="1" vertex="1">
                    <mxGeometry x="616" y="368" width="32" height="32" as="geometry"/>
                </mxCell>
                <mxCell id="B_iCe9IJ6w_yzAtO5XU2-334" value="" style="ellipse;whiteSpace=wrap;html=1;strokeColor=none;fontSize=10;" parent="1" vertex="1">
                    <mxGeometry x="616" y="448" width="32" height="32" as="geometry"/>
                </mxCell>
                <mxCell id="B_iCe9IJ6w_yzAtO5XU2-335" value="" style="ellipse;whiteSpace=wrap;html=1;strokeColor=none;fontSize=10;" parent="1" vertex="1">
                    <mxGeometry x="616" y="528" width="32" height="32" as="geometry"/>
                </mxCell>
                <mxCell id="B_iCe9IJ6w_yzAtO5XU2-339" value="" style="ellipse;whiteSpace=wrap;html=1;strokeColor=none;fontSize=10;" parent="1" vertex="1">
                    <mxGeometry x="696" y="208" width="32" height="32" as="geometry"/>
                </mxCell>
                <mxCell id="B_iCe9IJ6w_yzAtO5XU2-340" value="" style="ellipse;whiteSpace=wrap;html=1;strokeColor=none;fontSize=10;" parent="1" vertex="1">
                    <mxGeometry x="696" y="288" width="32" height="32" as="geometry"/>
                </mxCell>
                <mxCell id="B_iCe9IJ6w_yzAtO5XU2-341" value="" style="ellipse;whiteSpace=wrap;html=1;strokeColor=none;fontSize=10;" parent="1" vertex="1">
                    <mxGeometry x="696" y="368" width="32" height="32" as="geometry"/>
                </mxCell>
                <mxCell id="B_iCe9IJ6w_yzAtO5XU2-342" value="" style="ellipse;whiteSpace=wrap;html=1;strokeColor=none;fontSize=10;" parent="1" vertex="1">
                    <mxGeometry x="696" y="448" width="32" height="32" as="geometry"/>
                </mxCell>
                <mxCell id="B_iCe9IJ6w_yzAtO5XU2-343" value="" style="ellipse;whiteSpace=wrap;html=1;strokeColor=none;fontSize=10;" parent="1" vertex="1">
                    <mxGeometry x="696" y="528" width="32" height="32" as="geometry"/>
                </mxCell>
                <mxCell id="B_iCe9IJ6w_yzAtO5XU2-347" value="" style="ellipse;whiteSpace=wrap;html=1;strokeColor=none;fontSize=10;" parent="1" vertex="1">
                    <mxGeometry x="776" y="208" width="32" height="32" as="geometry"/>
                </mxCell>
                <mxCell id="B_iCe9IJ6w_yzAtO5XU2-348" value="" style="ellipse;whiteSpace=wrap;html=1;strokeColor=none;fontSize=10;" parent="1" vertex="1">
                    <mxGeometry x="776" y="288" width="32" height="32" as="geometry"/>
                </mxCell>
                <mxCell id="B_iCe9IJ6w_yzAtO5XU2-349" value="" style="ellipse;whiteSpace=wrap;html=1;strokeColor=none;fontSize=10;" parent="1" vertex="1">
                    <mxGeometry x="776" y="368" width="32" height="32" as="geometry"/>
                </mxCell>
                <mxCell id="B_iCe9IJ6w_yzAtO5XU2-350" value="" style="ellipse;whiteSpace=wrap;html=1;strokeColor=none;fontSize=10;" parent="1" vertex="1">
                    <mxGeometry x="776" y="448" width="32" height="32" as="geometry"/>
                </mxCell>
                <mxCell id="B_iCe9IJ6w_yzAtO5XU2-351" value="" style="ellipse;whiteSpace=wrap;html=1;strokeColor=none;fontSize=10;" parent="1" vertex="1">
                    <mxGeometry x="776" y="528" width="32" height="32" as="geometry"/>
                </mxCell>
            </root>
        </mxGraphModel>
    </diagram>
</mxfile>